<svg width="987" height="473" viewBox="0 0 987 473" fill="none" xmlns="http://www.w3.org/2000/svg">
<ellipse cx="775.938" cy="236.5" rx="16.9123" ry="236.5" fill="#A238FF"/>
<ellipse cx="649.735" cy="236.5" rx="16.9123" ry="236.5" fill="#A238FF"/>
<ellipse cx="523.53" cy="236.5" rx="16.9123" ry="236.5" fill="#A238FF"/>
<ellipse cx="397.324" cy="236.5" rx="16.9123" ry="236.5" fill="#A238FF"/>
<ellipse cx="270.52" cy="236.5" rx="16.9123" ry="236.5" fill="#A238FF"/>
<ellipse cx="143.715" cy="236.5" rx="16.9123" ry="236.5" fill="#A238FF"/>
<ellipse cx="16.9123" cy="236.5" rx="16.9123" ry="236.5" fill="#A238FF"/>
<ellipse cx="757.733" cy="236.5" rx="16.9123" ry="236.5" fill="#A238FF"/>
<ellipse cx="631.53" cy="236.5" rx="16.9123" ry="236.5" fill="#A238FF"/>
<ellipse cx="505.324" cy="236.5" rx="16.9123" ry="236.5" fill="#A238FF"/>
<ellipse cx="379.121" cy="236.5" rx="16.9123" ry="236.5" fill="#A238FF"/>
<ellipse cx="252.315" cy="236.5" rx="16.9123" ry="236.5" fill="#A238FF"/>
<ellipse cx="125.512" cy="236.5" rx="16.9123" ry="236.5" fill="#A238FF"/>
<ellipse cx="703.735" cy="236.5" rx="16.9123" ry="236.5" fill="#A238FF"/>
<ellipse cx="577.528" cy="236.5" rx="16.9123" ry="236.5" fill="#A238FF"/>
<ellipse cx="451.324" cy="236.5" rx="16.9123" ry="236.5" fill="#A238FF"/>
<ellipse cx="325.115" cy="236.5" rx="16.9123" ry="236.5" fill="#A238FF"/>
<ellipse cx="198.313" cy="236.5" rx="16.9123" ry="236.5" fill="#A238FF"/>
<ellipse cx="71.512" cy="236.5" rx="16.9123" ry="236.5" fill="#A238FF"/>
<ellipse cx="739.535" cy="236.5" rx="16.9123" ry="236.5" fill="#A238FF"/>
<ellipse cx="739.535" cy="236.5" rx="16.9123" ry="236.5" fill="#A238FF"/>
<ellipse cx="613.328" cy="236.5" rx="16.9123" ry="236.5" fill="#A238FF"/>
<ellipse cx="487.121" cy="236.5" rx="16.9123" ry="236.5" fill="#A238FF"/>
<ellipse cx="360.918" cy="236.5" rx="16.9123" ry="236.5" fill="#A238FF"/>
<ellipse cx="234.115" cy="236.5" rx="16.9123" ry="236.5" fill="#A238FF"/>
<ellipse cx="107.309" cy="236.5" rx="16.9123" ry="236.5" fill="#A238FF"/>
<ellipse cx="685.537" cy="236.5" rx="16.9123" ry="236.5" fill="#A238FF"/>
<ellipse cx="559.328" cy="236.5" rx="16.9123" ry="236.5" fill="#A238FF"/>
<ellipse cx="433.123" cy="236.5" rx="16.9123" ry="236.5" fill="#A238FF"/>
<ellipse cx="306.918" cy="236.5" rx="16.9123" ry="236.5" fill="#A238FF"/>
<ellipse cx="180.114" cy="236.5" rx="16.9123" ry="236.5" fill="#A238FF"/>
<ellipse cx="53.3088" cy="236.5" rx="16.9123" ry="236.5" fill="#A238FF"/>
<ellipse cx="721.336" cy="236.5" rx="16.9123" ry="236.5" fill="#A238FF"/>
<ellipse cx="595.133" cy="236.5" rx="16.9123" ry="236.5" fill="#A238FF"/>
<ellipse cx="468.928" cy="236.5" rx="16.9123" ry="236.5" fill="#A238FF"/>
<ellipse cx="342.721" cy="236.5" rx="16.9123" ry="236.5" fill="#A238FF"/>
<ellipse cx="215.918" cy="236.5" rx="16.9123" ry="236.5" fill="#A238FF"/>
<ellipse cx="89.1135" cy="236.5" rx="16.9123" ry="236.5" fill="#A238FF"/>
<ellipse cx="667.336" cy="236.5" rx="16.9123" ry="236.5" fill="#A238FF"/>
<ellipse cx="541.133" cy="236.5" rx="16.9123" ry="236.5" fill="#A238FF"/>
<ellipse cx="414.926" cy="236.5" rx="16.9123" ry="236.5" fill="#A238FF"/>
<ellipse cx="288.719" cy="236.5" rx="16.9123" ry="236.5" fill="#A238FF"/>
<ellipse cx="161.918" cy="236.5" rx="16.9123" ry="236.5" fill="#A238FF"/>
<ellipse cx="35.1155" cy="236.5" rx="16.9123" ry="236.5" fill="#A238FF"/>
<ellipse cx="794.494" cy="236.5" rx="16.0056" ry="236.5" fill="#A238FF"/>
<ellipse cx="980.061" cy="236.5" rx="6.9384" ry="236.5" fill="#A238FF"/>
<ellipse cx="813.054" cy="236.5" rx="15.0989" ry="236.5" fill="#A238FF"/>
<ellipse cx="831.608" cy="236.5" rx="14.1922" ry="236.5" fill="#A238FF"/>
<ellipse cx="850.166" cy="236.5" rx="13.2855" ry="236.5" fill="#A238FF"/>
<ellipse cx="868.722" cy="236.5" rx="12.3787" ry="236.5" fill="#A238FF"/>
<ellipse cx="887.283" cy="236.5" rx="11.472" ry="236.5" fill="#A238FF"/>
<ellipse cx="905.833" cy="236.5" rx="10.5653" ry="236.5" fill="#A238FF"/>
<ellipse cx="924.393" cy="236.5" rx="9.65857" ry="236.5" fill="#A238FF"/>
<ellipse cx="942.31" cy="236.5" rx="8.75184" ry="236.5" fill="#A238FF"/>
<ellipse cx="960.786" cy="236.5" rx="7.84512" ry="236.5" fill="#A238FF"/>
</svg>
